<svg width="16" height="16" viewBox="0 0 16 16" fill="none" xmlns="http://www.w3.org/2000/svg">
<path d="M8 14C6.64791 12.5113 4.81425 11.5472 2.8215 11.2769C2.59468 11.2518 2.3852 11.1435 2.23348 10.9731C2.08177 10.8026 1.99857 10.582 1.99996 10.3538V2.92297C1.99995 2.78964 2.02882 2.65789 2.0846 2.53678C2.14037 2.41568 2.22171 2.30809 2.32304 2.22143C2.42257 2.13634 2.53908 2.0734 2.66481 2.0368C2.79053 2.00019 2.92262 1.99076 3.05227 2.00912C4.95779 2.32537 6.70097 3.27502 8 4.70453V14Z" stroke="#334155" stroke-linecap="round" stroke-linejoin="round"/>
<path d="M8 14C9.3521 12.5113 11.1857 11.5472 13.1785 11.2769C13.4053 11.2518 13.6148 11.1435 13.7665 10.9731C13.9183 10.8026 14.0014 10.582 14 10.3538V2.92297C14 2.78964 13.9712 2.65789 13.9154 2.53678C13.8596 2.41568 13.7783 2.30809 13.677 2.22143C13.5775 2.13634 13.461 2.0734 13.3352 2.0368C13.2094 2.00019 13.0774 1.99076 12.9477 2.00912C11.0422 2.32537 9.29904 3.27502 8 4.70453V14Z" stroke="#334155" stroke-linecap="round" stroke-linejoin="round"/>
</svg>
