<svg width="16" height="16" viewBox="0 0 16 16" fill="none" xmlns="http://www.w3.org/2000/svg">
<path d="M6.36617 3.61538L6.76309 2.59077C6.83003 2.41729 6.94781 2.26807 7.10098 2.16266C7.25417 2.05724 7.43561 2.00055 7.62155 2H8.37848C8.56442 2.00055 8.74587 2.05724 8.89904 2.16266C9.05223 2.26807 9.17 2.41729 9.23694 2.59077L9.63386 3.61538L10.9815 4.39077L12.0707 4.22462C12.2521 4.2 12.4367 4.22985 12.6011 4.31039C12.7655 4.39093 12.9022 4.5185 12.9938 4.67692L13.3631 5.32308C13.4577 5.48402 13.5013 5.66986 13.4881 5.85608C13.4749 6.0423 13.4056 6.22015 13.2892 6.36615L12.6154 7.22462V8.77538L13.3077 9.63385C13.4241 9.77985 13.4934 9.9577 13.5066 10.1439C13.5198 10.3301 13.4761 10.516 13.3815 10.6769L13.0123 11.3231C12.9206 11.4815 12.7839 11.609 12.6196 11.6896C12.4552 11.7701 12.2706 11.8 12.0892 11.7754L11 11.6092L9.65232 12.3846L9.2554 13.4092C9.18846 13.5827 9.07069 13.7319 8.91751 13.8374C8.76433 13.9428 8.58288 13.9994 8.39694 14H7.62155C7.43561 13.9994 7.25417 13.9428 7.10098 13.8374C6.94781 13.7319 6.83003 13.5827 6.76309 13.4092L6.36617 12.3846L5.01848 11.6092L3.92925 11.7754C3.74788 11.8 3.56328 11.7701 3.39892 11.6896C3.23457 11.609 3.09786 11.4815 3.00617 11.3231L2.63694 10.6769C2.54232 10.516 2.49873 10.3301 2.51192 10.1439C2.5251 9.9577 2.59444 9.77985 2.71078 9.63385L3.38463 8.77538V7.22462L2.69232 6.36615C2.57598 6.22015 2.50664 6.0423 2.49345 5.85608C2.48027 5.66986 2.52386 5.48402 2.61848 5.32308L2.98771 4.67692C3.0794 4.5185 3.2161 4.39093 3.38046 4.31039C3.54482 4.22985 3.72942 4.2 3.91078 4.22462L5.00001 4.39077L6.36617 3.61538ZM6.15386 8C6.15386 8.36513 6.26214 8.72207 6.46499 9.02567C6.66786 9.32927 6.95618 9.56589 7.29352 9.70562C7.63087 9.84535 8.00206 9.88191 8.36018 9.81068C8.7183 9.73945 9.04725 9.56362 9.30545 9.30542C9.56363 9.04724 9.73946 8.71828 9.81069 8.36017C9.88193 8.00205 9.84537 7.63085 9.70564 7.2935C9.56591 6.95617 9.32928 6.66783 9.02568 6.46498C8.72208 6.26212 8.36515 6.15385 8.00001 6.15385C7.51039 6.15385 7.04081 6.34835 6.69459 6.69458C6.34837 7.04079 6.15386 7.51037 6.15386 8Z" stroke="#334155" stroke-linecap="round" stroke-linejoin="round"/>
</svg>
