<svg width="24" height="24" viewBox="0 0 24 24" fill="none" xmlns="http://www.w3.org/2000/svg">
<rect x="0.5" y="0.5" width="23" height="23" rx="3.5" fill="#FEEBEB"/>
<rect x="0.5" y="0.5" width="23" height="23" rx="3.5" stroke="#F36767"/>
<path d="M9.23081 17.0768H6.92313C6.67831 17.0768 6.44353 16.9795 6.27042 16.8065C6.09731 16.6334 6.00006 16.3986 6.00006 16.1538V6.92307C6.00006 6.67825 6.09731 6.44347 6.27042 6.27036C6.44353 6.09725 6.67831 6 6.92313 6H17.0769C17.3217 6 17.5565 6.09725 17.7296 6.27036C17.9027 6.44347 18 6.67825 18 6.92307V12.4615" stroke="#F36767" stroke-linecap="round" stroke-linejoin="round"/>
<path d="M6.00006 8.76923H18" stroke="#F36767" stroke-linecap="round" stroke-linejoin="round"/>
<path d="M17.9261 17.1785C17.9714 17.2621 17.9951 17.3557 17.9951 17.4508C17.9951 17.5459 17.9714 17.6394 17.9261 17.7231C17.8836 17.8065 17.8188 17.8765 17.739 17.9253C17.6592 17.9742 17.5674 18.0001 17.4738 18H12.0554C11.9618 18.0001 11.8701 17.9742 11.7902 17.9253C11.7104 17.8765 11.6457 17.8065 11.6031 17.7231C11.5579 17.6394 11.5342 17.5459 11.5342 17.4508C11.5342 17.3557 11.5579 17.2621 11.6031 17.1785L14.3262 12.2678C14.3636 12.1761 14.4275 12.0976 14.5097 12.0423C14.5919 11.9871 14.6887 11.9576 14.7877 11.9576C14.8867 11.9576 14.9835 11.9871 15.0658 12.0423C15.1479 12.0976 15.2118 12.1761 15.2492 12.2678L17.9261 17.1785Z" stroke="#F36767" stroke-linecap="round" stroke-linejoin="round"/>
<path d="M14.7692 15.2307V14.3076" stroke="#F36767" stroke-linecap="round" stroke-linejoin="round"/>
<path d="M14.7647 16.7308C14.7009 16.7308 14.6492 16.6791 14.6492 16.6154C14.6492 16.5516 14.7009 16.4999 14.7647 16.4999" stroke="#F36767" stroke-linecap="round" stroke-linejoin="round"/>
<path d="M14.7645 16.7308C14.8283 16.7308 14.88 16.6791 14.88 16.6154C14.88 16.5516 14.8283 16.4999 14.7645 16.4999" stroke="#F36767" stroke-linecap="round" stroke-linejoin="round"/>
</svg>
