<svg width="16" height="16" viewBox="0 0 16 16" fill="none" xmlns="http://www.w3.org/2000/svg">
<path d="M2.46155 4.76923H13.5385" stroke="#334155" stroke-linecap="round" stroke-linejoin="round"/>
<path d="M3.84619 4.76923H12.1539V13.0769C12.1539 13.3217 12.0566 13.5565 11.8835 13.7296C11.7104 13.9027 11.4756 14 11.2308 14H4.76927C4.52445 14 4.28967 13.9027 4.11655 13.7296C3.94345 13.5565 3.84619 13.3217 3.84619 13.0769V4.76923Z" stroke="#334155" stroke-linecap="round" stroke-linejoin="round"/>
<path d="M5.69232 4.76923V4.30769C5.69232 3.69566 5.93545 3.10868 6.36823 2.6759C6.801 2.24313 7.38798 2 8.00001 2C8.61205 2 9.19903 2.24313 9.6318 2.6759C10.0646 3.10868 10.3077 3.69566 10.3077 4.30769V4.76923" stroke="#334155" stroke-linecap="round" stroke-linejoin="round"/>
<path d="M6.61542 7.53979V11.2335" stroke="#334155" stroke-linecap="round" stroke-linejoin="round"/>
<path d="M9.38464 7.53979V11.2335" stroke="#334155" stroke-linecap="round" stroke-linejoin="round"/>
</svg>
