<svg width="16" height="16" viewBox="0 0 16 16" fill="none" xmlns="http://www.w3.org/2000/svg">
<path d="M6.15589 12.837L2.00232 14L3.16532 9.84644L10.771 2.27771C10.8569 2.1898 10.9596 2.11995 11.0729 2.07226C11.1862 2.02457 11.308 2 11.4309 2C11.5539 2 11.6756 2.02457 11.789 2.07226C11.9022 2.11995 12.005 2.1898 12.0909 2.27771L13.7246 3.92068C13.8111 4.00648 13.8798 4.10858 13.9267 4.22105C13.9736 4.33353 13.9977 4.45417 13.9977 4.57602C13.9977 4.69787 13.9736 4.81852 13.9267 4.931C13.8798 5.04347 13.8111 5.14556 13.7246 5.23136L6.15589 12.837Z" stroke="#334155" stroke-linecap="round" stroke-linejoin="round"/>
</svg>
