<svg width="16" height="16" viewBox="0 0 16 16" fill="none" xmlns="http://www.w3.org/2000/svg">
<path d="M5.32373 2.65667C5.65514 2.98035 5.8522 3.41717 5.87554 3.87984L7.55856 2.20602C7.61636 2.14122 7.68721 2.08937 7.76645 2.05386C7.8457 2.01835 7.93155 2 8.0184 2C8.10523 2 8.19109 2.01835 8.27033 2.05386C8.34958 2.08937 8.42043 2.14122 8.47823 2.20602L9.83936 3.62233C9.64604 3.71607 9.46904 3.84028 9.31514 3.9902C8.98757 4.35044 8.81126 4.82296 8.82282 5.30973C8.83437 5.7965 9.03289 6.26013 9.37718 6.60442C9.72147 6.94872 10.1851 7.14723 10.6719 7.15879C11.1587 7.17034 11.6312 6.99404 11.9914 6.66647C12.1413 6.51256 12.2655 6.33557 12.3592 6.14225L13.794 7.55856C13.8588 7.61636 13.9106 7.68721 13.9462 7.76645C13.9816 7.8457 14 7.93155 14 8.0184C14 8.10523 13.9816 8.19109 13.9462 8.27033C13.9106 8.34958 13.8588 8.42043 13.794 8.47823L12.1202 10.1245C12.4826 10.1464 12.8312 10.2726 13.1237 10.4878C13.4162 10.703 13.6404 10.9982 13.7691 11.3378C13.898 11.6774 13.926 12.047 13.8497 12.4021C13.7735 12.7572 13.5963 13.0826 13.3395 13.3395C13.0826 13.5963 12.7572 13.7735 12.4021 13.8497C12.047 13.926 11.6774 13.898 11.3378 13.7691C10.9982 13.6404 10.703 13.4162 10.4878 13.1237C10.2726 12.8312 10.1464 12.4826 10.1245 12.1202L8.44144 13.794C8.38364 13.8588 8.31279 13.9106 8.23355 13.9462C8.1543 13.9816 8.06845 14 7.9816 14C7.89477 14 7.80891 13.9816 7.72967 13.9462C7.65042 13.9106 7.57957 13.8588 7.52176 13.794L6.16064 12.3777C6.35396 12.2839 6.53096 12.1598 6.68486 12.0098C7.03975 11.6524 7.23817 11.1688 7.23644 10.6652C7.23471 10.1615 7.03299 9.67923 6.67566 9.32434C6.31833 8.96944 5.83465 8.77104 5.33102 8.77275C4.8274 8.77448 4.3451 8.9762 3.9902 9.33353C3.84028 9.48743 3.71607 9.66443 3.62233 9.85775L2.20602 8.44144C2.14122 8.38364 2.08937 8.31279 2.05386 8.23355C2.01835 8.1543 2 8.06845 2 7.9816C2 7.89477 2.01835 7.80891 2.05386 7.72967C2.08937 7.65042 2.14122 7.57957 2.20602 7.52176L3.87984 5.87554C3.41717 5.8522 2.98035 5.65514 2.65667 5.32373C2.30299 4.97006 2.1043 4.49037 2.1043 3.9902C2.1043 3.49003 2.30299 3.01034 2.65667 2.65667C3.01034 2.30299 3.49003 2.1043 3.9902 2.1043C4.49037 2.1043 4.97006 2.30299 5.32373 2.65667Z" stroke="#334155" stroke-linecap="round" stroke-linejoin="round"/>
</svg>
