<svg width="16" height="16" viewBox="0 0 16 16" fill="none" xmlns="http://www.w3.org/2000/svg">
<path d="M6.15387 2H4.30772C3.79792 2 3.38464 2.41328 3.38464 2.92308V4.76923C3.38464 5.27903 3.79792 5.69231 4.30772 5.69231H6.15387C6.66367 5.69231 7.07695 5.27903 7.07695 4.76923V2.92308C7.07695 2.41328 6.66367 2 6.15387 2Z" stroke="#334155" stroke-linecap="round" stroke-linejoin="round"/>
<path d="M6.15387 10.3077H4.30772C3.79792 10.3077 3.38464 10.721 3.38464 11.2308V13.0769C3.38464 13.5867 3.79792 14 4.30772 14H6.15387C6.66367 14 7.07695 13.5867 7.07695 13.0769V11.2308C7.07695 10.721 6.66367 10.3077 6.15387 10.3077Z" stroke="#334155" stroke-linecap="round" stroke-linejoin="round"/>
<path d="M11.6923 6.61536H9.84617C9.33638 6.61536 8.9231 7.02864 8.9231 7.53843V9.38459C8.9231 9.89438 9.33638 10.3077 9.84617 10.3077H11.6923C12.2021 10.3077 12.6154 9.89438 12.6154 9.38459V7.53843C12.6154 7.02864 12.2021 6.61536 11.6923 6.61536Z" stroke="#334155" stroke-linecap="round" stroke-linejoin="round"/>
<path d="M5.23077 5.69232V10.3077" stroke="#334155" stroke-linecap="round" stroke-linejoin="round"/>
<path d="M8.92308 8.46155H8C7.26556 8.46155 6.5612 8.1698 6.04186 7.65046C5.52253 7.13113 5.23077 6.42677 5.23077 5.69232" stroke="#334155" stroke-linecap="round" stroke-linejoin="round"/>
</svg>
