<svg width="16" height="16" viewBox="0 0 16 16" fill="none" xmlns="http://www.w3.org/2000/svg">
<path d="M4.76923 14H2.92308C2.67826 14 2.44347 13.9027 2.27036 13.7296C2.09725 13.5566 2 13.3217 2 13.0769V5.69232H14V13.0769C14 13.3217 13.9027 13.5566 13.7296 13.7296C13.5566 13.9027 13.3217 14 13.0769 14H11.2308" stroke="#334155" stroke-linecap="round" stroke-linejoin="round"/>
<path d="M5.69232 10.7692L8.00001 8.46155L10.3077 10.7692" stroke="#334155" stroke-linecap="round" stroke-linejoin="round"/>
<path d="M8 8.46155V14" stroke="#334155" stroke-linecap="round" stroke-linejoin="round"/>
<path d="M11.96 2.46154C11.8811 2.32468 11.7683 2.21038 11.6326 2.12957C11.4968 2.04876 11.3426 2.00414 11.1846 2H4.81538C4.65745 2.00414 4.50322 2.04876 4.36745 2.12957C4.23169 2.21038 4.11894 2.32468 4.04 2.46154L2 5.69231H14L11.96 2.46154Z" stroke="#334155" stroke-linecap="round" stroke-linejoin="round"/>
<path d="M8 2V5.69231" stroke="#334155" stroke-linecap="round" stroke-linejoin="round"/>
</svg>
